<svg id="f511a853-eb28-4fa8-9a5b-cdd29b858207" data-name="Layer 1" xmlns="http://www.w3.org/2000/svg" viewBox="0 0 477.03 498.97"><title>logo</title><rect width="389.3" height="498.97" fill="#ff6339"/><rect x="90.47" y="326.25" width="386.56" height="172.72" fill="#ff6339"/><text x="-11.7" y="-0.15"/><path d="M88,48.18h17l40.53,93.16H122.32l-8-19.74H78.1l-7.76,19.74H47.7Zm7.9,27.1-11.32,29h22.76Z" transform="translate(-11.7 -0.15)" fill="#fff"/><path d="M181,48.18h36.06a63.64,63.64,0,0,1,13.48,1.38,31.93,31.93,0,0,1,11.19,4.6,22.94,22.94,0,0,1,7.63,8.69q2.83,5.46,2.83,13.62,0,9.87-5.13,16.78t-15,8.75l23.69,39.34H231.14L211.66,104.1H201.53v37.24H181Zm20.53,38.55h12.1c1.85,0,3.8-.06,5.86-.2a18.19,18.19,0,0,0,5.59-1.18,9.73,9.73,0,0,0,4.15-3.09,9.45,9.45,0,0,0,1.64-5.92,9.05,9.05,0,0,0-5.13-8.89,16.39,16.39,0,0,0-5.13-1.51,42.41,42.41,0,0,0-5.66-.39H201.53Z" transform="translate(-11.7 -0.15)" fill="#fff"/><path d="M310.85,66.34H284.26V48.18H358V66.34H331.37v75H310.85Z" transform="translate(-11.7 -0.15)" fill="#fff"/><path d="M113.63,224.82a20.13,20.13,0,0,0-7.43-5.66,24.69,24.69,0,0,0-10.2-2,25.47,25.47,0,0,0-19.28,8.48,29.22,29.22,0,0,0-5.66,9.55,36.34,36.34,0,0,0,0,24,30.17,30.17,0,0,0,5.59,9.48A25.45,25.45,0,0,0,85,275a24.19,24.19,0,0,0,10.33,2.23,23.12,23.12,0,0,0,11.19-2.63,22.19,22.19,0,0,0,8-7.37L131.66,280a35.67,35.67,0,0,1-15,12.23A46.27,46.27,0,0,1,98,296.14a57.4,57.4,0,0,1-20.13-3.42,46.1,46.1,0,0,1-15.92-9.8,44.45,44.45,0,0,1-10.47-15.46,56.66,56.66,0,0,1,0-40.54,44.45,44.45,0,0,1,10.47-15.46,46.1,46.1,0,0,1,15.92-9.8A57.4,57.4,0,0,1,98,198.24a49.53,49.53,0,0,1,8.23.72,44.38,44.38,0,0,1,8.42,2.3,38,38,0,0,1,8,4.21,31.81,31.81,0,0,1,6.84,6.45Z" transform="translate(-11.7 -0.15)" fill="#fff"/><path d="M160.23,247.19A52.66,52.66,0,0,1,164,226.92a44.45,44.45,0,0,1,10.47-15.46,46.1,46.1,0,0,1,15.92-9.8,61,61,0,0,1,40.27,0,46.19,46.19,0,0,1,15.92,9.8A44.57,44.57,0,0,1,257,226.92a56.66,56.66,0,0,1,0,40.54,44.57,44.57,0,0,1-10.46,15.46,46.19,46.19,0,0,1-15.92,9.8,61,61,0,0,1-40.27,0,46.1,46.1,0,0,1-15.92-9.8A44.45,44.45,0,0,1,164,267.46,52.66,52.66,0,0,1,160.23,247.19Zm21.32,0a34.14,34.14,0,0,0,2,12,27.57,27.57,0,0,0,5.86,9.48,26.75,26.75,0,0,0,9.14,6.25,32.92,32.92,0,0,0,23.82,0,26.89,26.89,0,0,0,9.15-6.25,27.7,27.7,0,0,0,5.85-9.48,36.34,36.34,0,0,0,0-24,27.54,27.54,0,0,0-5.85-9.55,27,27,0,0,0-9.15-6.25,32.92,32.92,0,0,0-23.82,0,26.89,26.89,0,0,0-9.14,6.25,27.41,27.41,0,0,0-5.86,9.55A34.27,34.27,0,0,0,181.55,247.19Z" transform="translate(-11.7 -0.15)" fill="#fff"/><path d="M299.4,200.61h20.53v74.21h38v18.95H299.4Z" transform="translate(-11.7 -0.15)" fill="#fff"/><path d="M53.19,353H73.71v74.22h38v18.95H53.19Z" transform="translate(-11.7 -0.15)" fill="#fff"/><path d="M189.91,353h17l40.53,93.17H224.25l-8-19.74H180l-7.77,19.74H149.64Zm7.89,27.11-11.31,29h22.76Z" transform="translate(-11.7 -0.15)" fill="#fff"/><path d="M287.53,353h34.74a87.92,87.92,0,0,1,12.18.85,33.17,33.17,0,0,1,11,3.43,21,21,0,0,1,7.9,7.17c2,3.07,3,7.15,3,12.24A19.59,19.59,0,0,1,352,389.82a24.25,24.25,0,0,1-11.65,7.43v.27a26.69,26.69,0,0,1,8.36,2.56A22.52,22.52,0,0,1,355.1,405a20.89,20.89,0,0,1,4.15,6.91,24.15,24.15,0,0,1,1.45,8.42,22.45,22.45,0,0,1-3.16,12.31,24.74,24.74,0,0,1-8.16,8,35.72,35.72,0,0,1-11.25,4.34,60,60,0,0,1-12.43,1.32H287.53Zm20.53,37.24h14.87a20.9,20.9,0,0,0,4.67-.53,12.89,12.89,0,0,0,4.15-1.71,8.9,8.9,0,0,0,3-3.16,9.48,9.48,0,0,0,1.12-4.73,8.66,8.66,0,0,0-1.25-4.81,8.78,8.78,0,0,0-3.22-3,15.66,15.66,0,0,0-4.48-1.51,26.62,26.62,0,0,0-4.87-.46H308.06Zm0,38.56h18.42a22.86,22.86,0,0,0,4.81-.53,12.7,12.7,0,0,0,4.41-1.84,10.55,10.55,0,0,0,3.22-3.42,10,10,0,0,0,1.25-5.14,8.24,8.24,0,0,0-1.64-5.32,10.44,10.44,0,0,0-4.15-3.1A21.67,21.67,0,0,0,329,408a40.34,40.34,0,0,0-5.39-.39H308.06Z" transform="translate(-11.7 -0.15)" fill="#fff"/><path d="M437.11,401.07a14,14,0,0,0-11.45-5.39,10.78,10.78,0,0,0-4.87,1.18,4.18,4.18,0,0,0-2.36,4.08,3.68,3.68,0,0,0,2.43,3.49,32.61,32.61,0,0,0,6.19,2l8,1.84a30.06,30.06,0,0,1,8,3.1,17.9,17.9,0,0,1,6.18,5.72q2.45,3.62,2.44,9.67a17.88,17.88,0,0,1-2.7,10.2,20.62,20.62,0,0,1-6.91,6.45,29.73,29.73,0,0,1-9.47,3.42,56.21,56.21,0,0,1-10.4,1,50.36,50.36,0,0,1-13.55-1.91,25.24,25.24,0,0,1-11.58-6.78l12-13.29a20,20,0,0,0,6.12,5.2,16.56,16.56,0,0,0,7.83,1.77,18.27,18.27,0,0,0,6.19-1,3.65,3.65,0,0,0,2.76-3.62,4,4,0,0,0-2.43-3.75,26.5,26.5,0,0,0-6.19-2.11l-8-1.84a33.46,33.46,0,0,1-8-3,16.84,16.84,0,0,1-6.19-5.59q-2.43-3.63-2.43-9.68a19.43,19.43,0,0,1,2.3-9.73A20.25,20.25,0,0,1,407,385.8a26.38,26.38,0,0,1,8.62-3.88,39.74,39.74,0,0,1,9.87-1.25,46.66,46.66,0,0,1,12.77,1.84,23.92,23.92,0,0,1,10.92,6.58Z" transform="translate(-11.7 -0.15)" fill="#fff"/></svg>
